Antunes Filho's Em Compasso de Espera is a film which promotes the idea of race equality by means of showing various struggles that the main hero has to go through. Black self awareness in Brazil triggered social conflicts that were a large part of the country’s history. The film director wants to illustrate some of those conflicts through the prism of his characters. 

Compasso de Espera focuses on a black poet and advertising agent named Jorge de Oliveira (played by Zózimo Bulbul, who also collaborated on the script). Jorge publishes books of poetry - Compasso de Espera is the title of one of his collections - with the help of his sponsor, a childless white millionaire (an allusion to the Brazilian institution of the padrinho, the patron "godfather"). The impeccably dressed, dignified, articulate Jorge at first glance resembles a number of Sidney Poitier characters, but he lacks the moral stature of the Poitier persona. 

Romantically involved with an older white woman (Emma), Jorge feels sorry for her, but also resents his financial dependence on her. (Jorge's professional prestige is "traded," as it were, for Emma's real wealth and for the cultural capital of her whiteness.) Emma's relatives suggest that the couple not appear too much in public, so as to avoid "talk." Jorge's subsequent infatuation with the upper-class Cristina (Renee de Vilmond) leads to confrontations first with Emma and then with Cristina's family. When Cristina's parents encounter the couple in a restaurant, the mother sneeringly tells her daughter: "I never thought you would stoop so low." 

   General
      Complete name : Em Compasso de Espera.avi
      Format : AVI
      Format/Info : Audio Video Interleave
      File size : 1.09 GiB
      Duration : 1h 34mn
      Overall bit rate : 1 665 Kbps
      Writing application : VirtualDubMod 1.5.4.1 (build 2178/release)
      Writing library : VirtualDubMod build 2178/release
   Video #0
      ID : 0
      Format : MPEG-4 Visual
      Format profile : AdvancedSimple@L5
      Format settings, BVOP : Yes
      Format settings, QPel : No
      Format settings, GMC : No warppoints
      Format settings, Matrix : Custom
      Codec ID : XVID
      Codec ID/Hint : XviD
      Duration : 1h 34mn
      Bit rate : 1 402 Kbps
      Width : 576 pixels
      Height : 432 pixels
      Display aspect ratio : 4:3
      Frame rate : 23.976 fps
      Resolution : 24 bits
      Colorimetry : 4:2:0
      Scan type : Progressive
      Bits/(Pixel*Frame) : 0.235
      Stream size : 944 MiB (84%)
      Writing library : XviD 1.2.1 (UTC 2008-12-04)
   Audio #1
      ID : 1
      Format : AC-3
      Format/Info : Audio Coding 3
      Codec ID : 2000
      Duration : 1h 34mn
      Bit rate mode : Constant
      Bit rate : 256 Kbps
      Channel(s) : 2 channels
      Channel positions : L R
      Sampling rate : 48.0 KHz
      Stream size : 172 MiB (15%)
      Alignment : Split accross interleaves
      Interleave, duration : 96 ms (2.30 video frames)
      Interleave, preload duration : 96 ms
      Language : portuguese

IMDB: tt0263314

Portuguese audio; no subtitles

Posted at Karagarga by patinhofeio33